<svg xmlns="http://www.w3.org/2000/svg" width="96" height="20" fill="none">
  <rect width="100%" height="100%" fill="white" />
  <defs>
    <g id="cdots" fill="#000">
      <circle cx="4" cy="8" r="1" />
      <circle cx="8" cy="8" r="1" />
      <circle cx="12" cy="8" r="1" />
    </g>
    <rect id="box" x="-15" y="1" width="30" height="14" stroke-width="2" stroke="currentColor" />
    <rect id="dot" x="-3" y="5" width="6" height="6" stroke="none" fill="currentColor" />
    <path id="clip0" d="M0 0v2l2-2h2l-2 2h2l2-2h2l-2 2h2l2-2h2l-2 2h2l2-2h2l-2 2h2l2-2v-2" />
    <clipPath id="clip-main">
      <use href="#clip0" x="-18" y="0" />
      <use href="#clip0" x="-16" y="14" />
      <use href="#clip0" x="18" y="0" />
      <use href="#clip0" x="16" y="14" />
      <rect x="-16" y="2" width="32" height="12" />
      <rect x="0" y="0" width="16" height="16" />
    </clipPath>
  </defs>
  <rect x="16" y="2" width="64" height="16" fill="#966C4A" />
  <use href="#cdots" x="0" y="2" />
  <use href="#cdots" x="80" y="2" />
  <use href="#box" x="32" y="2" color="#F00" />
  <use href="#box" x="48" y="2" color="#0F0" clip-path="url(#clip-main)" />
  <use href="#box" x="64" y="2" color="#00F" clip-path="url(#clip-main)" />
</svg>